<?xml version="1.0" encoding="utf-8"?>
<svg width="800px" height="800px" viewBox="0 0 1024 1024" class="icon" version="1.1" xmlns="http://www.w3.org/2000/svg">
  <path d="M761.2 942.8c-8.9 0-17.9-1.8-26.5-5.4l-220.7-93-220.7 93c-22.1 9.3-46.8 6.4-66.2-7.6-19.4-14.1-29.8-36.7-27.7-60.6l20.2-238.7L62.9 449.2c-15.7-18.1-20.6-42.5-13.2-65.3 7.4-22.8 25.7-39.6 49.1-45.1L332 284.3l123.9-205c12.4-20.5 34.1-32.7 58-32.7 24 0 45.7 12.2 58.1 32.7l123.9 205 233.2 54.5c23.3 5.5 41.7 22.3 49.1 45.1 7.4 22.8 2.5 47.2-13.2 65.3L808.4 630.4l20.2 238.7c2 23.9-8.3 46.5-27.7 60.6-11.8 8.6-25.7 13-39.7 13.1z" fill="#FF1493" />
</svg>
